<svg xmlns="http://www.w3.org/2000/svg" viewBox="0 0 21.5 21.48"><defs><style>.cls-1{fill:#ec1c24;}</style></defs><title>homeo</title><g id="Layer_2" data-name="Layer 2"><g id="Layer_1-2" data-name="Layer 1"><path class="cls-1" d="M16.54,21.48H5a5,5,0,0,1-5-5V9.1A5.5,5.5,0,0,1,1.92,5.19L7.31,1A5.2,5.2,0,0,1,13.2.85l6.18,4.33A5.46,5.46,0,0,1,21.5,9.24v7.28A5,5,0,0,1,16.54,21.48ZM8.23,2.17,2.84,6.37A4.06,4.06,0,0,0,1.5,9.1v7.41A3.47,3.47,0,0,0,5,20H16.54A3.46,3.46,0,0,0,20,16.52V9.24a4,4,0,0,0-1.48-2.83L12.34,2.08A3.72,3.72,0,0,0,8.23,2.17Z"/></g></g></svg>