<svg xmlns="http://www.w3.org/2000/svg" viewBox="0 0 15.14 21.3"><defs><style>.cls-1{fill:#ec1c24;}</style></defs><title>profileo</title><g id="Layer_2" data-name="Layer 2"><g id="Layer_1-2" data-name="Layer 1"><path class="cls-1" d="M7.56,10.37H7.3a5.15,5.15,0,1,1,.29,0ZM7.4,1.5a3.69,3.69,0,0,0-.14,7.37h.32A3.69,3.69,0,0,0,7.4,1.5Z"/><path class="cls-1" d="M7.57,21.3a9.88,9.88,0,0,1-5.42-1.5A4.29,4.29,0,0,1,0,16.25a4.34,4.34,0,0,1,2.15-3.57,10.59,10.59,0,0,1,10.84,0,4.31,4.31,0,0,1,2.15,3.55A4.34,4.34,0,0,1,13,19.8,9.9,9.9,0,0,1,7.57,21.3ZM3,13.94A2.88,2.88,0,0,0,1.5,16.26,2.87,2.87,0,0,0,3,18.56a9,9,0,0,0,9.18,0,2.88,2.88,0,0,0,1.48-2.32,2.87,2.87,0,0,0-1.48-2.3A9.08,9.08,0,0,0,3,13.94Z"/></g></g></svg>