<svg xmlns="http://www.w3.org/2000/svg" viewBox="0 0 20 20.58"><defs><style>.cls-1{fill:#ec1c24;}</style></defs><title>statementf</title><g id="Layer_2" data-name="Layer 2"><g id="Layer_1-2" data-name="Layer 1"><path class="cls-1" d="M5,0H4C1,0,0,1.79,0,4V19a1,1,0,0,0,1.6.8l1.71-1.28a1,1,0,0,1,1.32.1l1.66,1.67a1,1,0,0,0,1.42,0l1.68-1.68a1,1,0,0,1,1.3-.09L12.4,19.8A1,1,0,0,0,14,19V2a2,2,0,0,1,2-2ZM9.25,11.75H4.75a.75.75,0,0,1,0-1.5h4.5a.75.75,0,0,1,0,1.5Zm.75-4H4a.75.75,0,0,1,0-1.5h6a.75.75,0,0,1,0,1.5Z"/><path class="cls-1" d="M16,0V1.5A2.49,2.49,0,0,1,18.5,4V6.42c0,.74-.33,1.08-1.08,1.08H15.5V2A.51.51,0,0,1,16,1.5Zm0,0a2,2,0,0,0-2,2V9h3.42A2.4,2.4,0,0,0,20,6.42V4a4,4,0,0,0-4-4Z"/></g></g></svg>